<svg id="Assets" xmlns="http://www.w3.org/2000/svg" width="836.5" height="353.381" viewBox="0 0 836.5 353.381">
  <g id="Group-28" transform="translate(4 4)">
    <path id="Case" d="M817.956,126H493.334a9.161,9.161,0,0,0-6.6,2.822A9.765,9.765,0,0,0,484,135.636v229.6a9.766,9.766,0,0,0,2.735,6.814,9.161,9.161,0,0,0,6.6,2.822H817.956a9.165,9.165,0,0,0,6.6-2.822,9.762,9.762,0,0,0,2.733-6.814v-229.6a9.766,9.766,0,0,0-2.736-6.814A9.151,9.151,0,0,0,817.956,126Z" transform="translate(-324.02 -84.005)" fill="#fff" stroke="#141c3a" stroke-width="8" fill-rule="evenodd"/>
    <path id="Case-2" data-name="Case" d="M843.967,188H551a3.92,3.92,0,0,0-2.827,1.212,4.19,4.19,0,0,0-1.17,2.921V363.2a4.191,4.191,0,0,0,1.17,2.921A3.919,3.919,0,0,0,551,367.337h292.97a3.917,3.917,0,0,0,2.826-1.212,4.188,4.188,0,0,0,1.17-2.921V192.133a4.189,4.189,0,0,0-1.17-2.921A3.918,3.918,0,0,0,843.967,188Z" transform="translate(-366.022 -124.664)" fill="#95bae7" stroke="#95bae7" stroke-width="8" fill-rule="evenodd"/>
    <path id="Case-3" data-name="Case" d="M968.23,849H919l-3.323,44.4h55.873Z" transform="translate(-611.823 -558.136)" fill="#fff" stroke="#141c3a" stroke-width="8" fill-rule="evenodd"/>
    <path id="Keyboard" d="M950.655-997.018H854.334a.326.326,0,0,1-.236-.1.355.355,0,0,1-.1-.247v-4.644a5.051,5.051,0,0,1,1.416-3.528,4.738,4.738,0,0,1,3.419-1.463h87.317a4.734,4.734,0,0,1,3.42,1.463,5.046,5.046,0,0,1,1.417,3.528v4.644a.356.356,0,0,1-.1.247A.33.33,0,0,1,950.655-997.018Z" transform="translate(-570.701 1342.268)" fill="#fff" stroke="#141c3a" stroke-width="8" fill-rule="evenodd"/>
    <ellipse id="Oval-6" cx="5.986" cy="6.48" rx="5.986" ry="6.48" transform="translate(325.704 262.308)" fill="none" stroke="#141c3a" stroke-width="8"/>
    <rect id="Case-4" data-name="Case" width="65.842" height="133.746" rx="24" transform="translate(128.178 211.505)" fill="#fff" stroke="#141c3a" stroke-width="8"/>
    <path id="Case-5" data-name="Case" d="M454.992,662H389v98.894h65.992Z" transform="translate(-260.682 -435.505)" fill="#141c3a" stroke="#141c3a" stroke-width="8" fill-rule="evenodd"/>
    <rect id="Rectangle-11" width="32.173" height="2.592" rx="1.296" transform="translate(145.386 217.726)" fill="#141c3a"/>
    <rect id="Rectangle-11-2" data-name="Rectangle-11" width="7.599" height="7.848" rx="3.8" transform="translate(157.647 331.137)" fill="#141c3a"/>
    <ellipse id="Oval-6-2" data-name="Oval-6" cx="5.237" cy="5.184" rx="5.237" ry="5.184" transform="translate(141.645 270.602)" fill="#ecaeca" stroke="#ecaeca" stroke-width="8"/>
    <g id="Group-73" transform="translate(158.854 266.455)">
      <rect id="Rectangle-11-3" data-name="Rectangle-11" width="23.194" height="3.11" rx="1.555" transform="translate(0 0)" fill="#fff"/>
      <rect id="Rectangle-11-4" data-name="Rectangle-11" width="16.461" height="3.11" rx="1.555" transform="translate(0 7.776)" fill="#fff"/>
      <rect id="Rectangle-11-5" data-name="Rectangle-11" width="9.727" height="2.592" rx="1.296" transform="translate(0 15.552)" fill="#fff"/>
    </g>
    <path id="Oval-7" d="M51.16,0c28.255,0,51.16,23.656,51.16,52.837s-22.905,52.837-51.16,52.837S0,82.019,0,52.837,22.905,0,51.16,0Z" transform="translate(43.328 170.732)" fill="#95bae7" stroke="#141c3a" stroke-width="8"/>
    <path id="Case-6" data-name="Case" d="M1465.308,468H1237.329a9.149,9.149,0,0,0-6.6,2.823,9.765,9.765,0,0,0-2.733,6.816v151.8a9.765,9.765,0,0,0,2.733,6.814,9.153,9.153,0,0,0,6.6,2.824h227.979a9.149,9.149,0,0,0,6.6-2.823,9.764,9.764,0,0,0,2.733-6.815v-151.8a9.765,9.765,0,0,0-2.733-6.814A9.152,9.152,0,0,0,1465.308,468Z" transform="translate(-820.05 -308.283)" fill="#fff" stroke="#141c3a" stroke-width="8" fill-rule="evenodd"/>
    <path id="Keyboard-2" data-name="Keyboard" d="M1457.3,965H1177.33a.326.326,0,0,0-.233.1.35.35,0,0,0-.1.244v6.884a7.327,7.327,0,0,0,2.05,5.112,6.876,6.876,0,0,0,4.953,2.117H1450.63a6.875,6.875,0,0,0,4.953-2.117,7.328,7.328,0,0,0,2.05-5.112v-6.884a.351.351,0,0,0-.1-.244A.329.329,0,0,0,1457.3,965Z" transform="translate(-786.048 -634.207)" fill="#fff" stroke="#141c3a" stroke-width="8" fill-rule="evenodd"/>
    <path id="Notch" d="M1578.632,965.449H1541.31a10.688,10.688,0,0,0,3.133,4.484,10.089,10.089,0,0,0,6.526,2.4h18a10.09,10.09,0,0,0,6.529-2.4A10.687,10.687,0,0,0,1578.632,965.449Z" transform="translate(-1028.936 -634.501)" fill="#fff" stroke="#141c3a" stroke-width="8" fill-rule="evenodd"/>
    <path id="Screen" d="M2.666,0H224.442a2.711,2.711,0,0,1,2.666,2.754V139.012a2.711,2.711,0,0,1-2.666,2.754H2.666A2.711,2.711,0,0,1,0,139.012V2.754A2.711,2.711,0,0,1,2.666,0Z" transform="translate(417.616 174.518)" fill="#95bae7"/>
    <g id="Group-69" transform="translate(231.638)">
      <ellipse id="Oval-3" cx="1.496" cy="1.555" rx="1.496" ry="1.555" transform="translate(91.073 64.799)" fill="#293347"/>
      <path id="Case-7" data-name="Case" d="M152.649,59H4V208.735A6.974,6.974,0,0,0,5.952,213.6a6.546,6.546,0,0,0,4.716,2.016H145.98A6.544,6.544,0,0,0,150.7,213.6a6.974,6.974,0,0,0,1.953-4.868Z" transform="translate(-4 -40.068)" fill="#141c3a" stroke="#141c3a" stroke-width="8" fill-rule="evenodd"/>
      <path id="Case-8" data-name="Case" d="M145.98,4H10.669A6.544,6.544,0,0,0,5.953,6.017,6.978,6.978,0,0,0,4,10.886v9.293H152.649V10.886A6.978,6.978,0,0,0,150.7,6.017,6.545,6.545,0,0,0,145.98,4Z" transform="translate(-4 -4)" fill="#fff" stroke="#141c3a" stroke-width="8" fill-rule="evenodd"/>
      <ellipse id="Oval-5" cx="2.993" cy="3.11" rx="2.993" ry="3.11" transform="translate(8.77 5.184)" fill="#141c3a"/>
      <ellipse id="Oval-5-2" data-name="Oval-5" cx="2.993" cy="3.11" rx="2.993" ry="3.11" transform="translate(18.497 5.184)" fill="#ecaeca"/>
      <ellipse id="Oval-5-3" data-name="Oval-5" cx="2.993" cy="3.11" rx="2.993" ry="3.11" transform="translate(28.972 5.184)" fill="#95bae7"/>
      <g id="Group-72" transform="translate(16.252 47.692)">
        <rect id="Rectangle-11-6" data-name="Rectangle-11" width="5.986" height="2.592" rx="1.296" transform="translate(0 68.946)" fill="#535b6b" opacity="0.54"/>
        <rect id="Rectangle-11-7" data-name="Rectangle-11" width="5.986" height="2.592" rx="1.296" transform="translate(0 0)" fill="#535b6b" opacity="0.54"/>
        <path id="Rectangle-11-8" data-name="Rectangle-11" d="M31.333,0h9a1.356,1.356,0,0,1,1.333,1.377,1.356,1.356,0,0,1-1.333,1.377h-9A1.356,1.356,0,0,1,30,1.377,1.356,1.356,0,0,1,31.333,0Z" transform="translate(-20.256 0.154)" fill="#ecaeca" fill-rule="evenodd"/>
        <path id="Rectangle-11-9" data-name="Rectangle-11" d="M76.333,0h9a1.356,1.356,0,0,1,1.333,1.377,1.356,1.356,0,0,1-1.333,1.377h-9A1.356,1.356,0,0,1,75,1.377,1.356,1.356,0,0,1,76.333,0Z" transform="translate(-50.257 0.154)" fill="#95bae7" fill-rule="evenodd"/>
        <path id="Rectangle-11-10" data-name="Rectangle-11" d="M121.333,0H138a1.356,1.356,0,0,1,1.333,1.377A1.356,1.356,0,0,1,138,2.754H121.333A1.356,1.356,0,0,1,120,1.377,1.356,1.356,0,0,1,121.333,0Z" transform="translate(-80.259 0.154)" fill="#ecaeca" fill-rule="evenodd"/>
        <path id="Rectangle-11-11" data-name="Rectangle-11" d="M189.333,0H214a1.356,1.356,0,0,1,1.333,1.377A1.356,1.356,0,0,1,214,2.754H189.333A1.356,1.356,0,0,1,188,1.377,1.356,1.356,0,0,1,189.333,0Z" transform="translate(-125.595 0.154)" fill="#ecaeca" fill-rule="evenodd"/>
        <rect id="Rectangle-11-12" data-name="Rectangle-11" width="5.986" height="2.592" rx="1.296" transform="translate(0 13.997)" fill="#535b6b" opacity="0.54"/>
        <rect id="Rectangle-11-13" data-name="Rectangle-11" width="5.986" height="3.11" rx="1.555" transform="translate(0 27.475)" fill="#535b6b" opacity="0.54"/>
        <rect id="Rectangle-11-14" data-name="Rectangle-11" width="5.986" height="2.592" rx="1.296" transform="translate(0 41.472)" fill="#535b6b" opacity="0.54"/>
        <rect id="Rectangle-11-15" data-name="Rectangle-11" width="5.986" height="2.592" rx="1.296" transform="translate(0 55.468)" fill="#535b6b" opacity="0.54"/>
        <rect id="Rectangle-11-16" data-name="Rectangle-11" width="5.986" height="2.592" rx="1.296" transform="translate(0 82.943)" fill="#535b6b" opacity="0.54"/>
        <rect id="Rectangle-11-17" data-name="Rectangle-11" width="5.986" height="3.11" rx="1.555" transform="translate(0 96.421)" fill="#535b6b" opacity="0.54"/>
        <rect id="Rectangle-11-18" data-name="Rectangle-11" width="23.194" height="2.592" rx="1.296" transform="translate(9.727 13.997)" fill="#ecaeca"/>
        <rect id="Rectangle-11-19" data-name="Rectangle-11" width="39.655" height="2.592" rx="1.296" transform="translate(36.662 13.997)" fill="#95bae7"/>
        <rect id="Rectangle-11-20" data-name="Rectangle-11" width="16.461" height="2.592" rx="1.296" transform="translate(80.058 13.997)" fill="#ecaeca"/>
        <rect id="Rectangle-11-21" data-name="Rectangle-11" width="16.461" height="3.11" rx="1.555" transform="translate(9.727 27.475)" fill="#95bae7"/>
        <rect id="Rectangle-11-22" data-name="Rectangle-11" width="16.461" height="3.11" rx="1.555" transform="translate(29.928 27.475)" fill="#ecaeca"/>
        <rect id="Rectangle-11-23" data-name="Rectangle-11" width="10.475" height="3.11" rx="1.555" transform="translate(49.382 27.475)" fill="#ecaeca"/>
        <rect id="Rectangle-11-24" data-name="Rectangle-11" width="33.669" height="2.592" rx="1.296" transform="translate(9.727 41.472)" fill="#ecaeca"/>
        <rect id="Rectangle-11-25" data-name="Rectangle-11" width="23.194" height="2.592" rx="1.296" transform="translate(46.389 41.472)" fill="#ecaeca"/>
        <rect id="Rectangle-11-26" data-name="Rectangle-11" width="33.669" height="2.592" rx="1.296" transform="translate(9.727 55.468)" fill="#ecaeca"/>
        <rect id="Rectangle-11-27" data-name="Rectangle-11" width="43.396" height="2.592" rx="1.296" transform="translate(46.389 55.468)" fill="#95bae7"/>
        <rect id="Rectangle-11-28" data-name="Rectangle-11" width="23.194" height="2.592" rx="1.296" transform="translate(9.727 68.946)" fill="#ecaeca"/>
        <rect id="Rectangle-11-29" data-name="Rectangle-11" width="23.194" height="2.592" rx="1.296" transform="translate(36.662 68.946)" fill="#95bae7"/>
        <rect id="Rectangle-11-30" data-name="Rectangle-11" width="13.468" height="2.592" rx="1.296" transform="translate(62.849 68.946)" fill="#ecaeca"/>
        <rect id="Rectangle-11-31" data-name="Rectangle-11" width="43.396" height="2.592" rx="1.296" transform="translate(9.727 82.943)" fill="#ecaeca"/>
        <rect id="Rectangle-11-32" data-name="Rectangle-11" width="20.202" height="3.11" rx="1.555" transform="translate(9.727 96.421)" fill="#95bae7"/>
      </g>
    </g>
    <g id="Group-68" transform="translate(529.935 107.052)">
      <path id="Case-9" data-name="Case" d="M178.644,46H-4V180.243a9.769,9.769,0,0,0,2.734,6.817,9.162,9.162,0,0,0,6.6,2.823H169.309a9.16,9.16,0,0,0,6.6-2.823,9.768,9.768,0,0,0,2.734-6.817Z" transform="translate(4 -28.789)" fill="#fff" stroke="#141c3a" stroke-width="8" fill-rule="evenodd"/>
      <path id="Case-10" data-name="Case" d="M169.309-4H5.335a9.162,9.162,0,0,0-6.6,2.821A9.764,9.764,0,0,0-4,5.636V15.965H178.644V5.636a9.762,9.762,0,0,0-2.735-6.814A9.162,9.162,0,0,0,169.309-4Z" transform="translate(4 4)" fill="#141c3a" stroke="#141c3a" stroke-width="8" fill-rule="evenodd"/>
      <ellipse id="Oval-5-4" data-name="Oval-5" cx="2.993" cy="3.11" rx="2.993" ry="3.11" transform="translate(11.253 6.995)" fill="#fff"/>
      <ellipse id="Oval-5-5" data-name="Oval-5" cx="2.993" cy="3.11" rx="2.993" ry="3.11" transform="translate(21.728 6.995)" fill="#ecaeca"/>
      <ellipse id="Oval-5-6" data-name="Oval-5" cx="2.993" cy="3.11" rx="2.993" ry="3.11" transform="translate(31.454 6.995)" fill="#95bae7"/>
      <g id="Group-61" transform="translate(75.657 50.6)">
        <ellipse id="Oval-6-3" data-name="Oval-6" cx="32.921" cy="34.473" rx="32.921" ry="34.473" transform="translate(4.43 4.087)" fill="none" stroke="#ecaeca" stroke-width="9"/>
        <path id="Rectangle-12" d="M113,4h-8v8.261h8Z" transform="translate(-71.337 -4)" fill="#fff" stroke="#95bae7" stroke-width="8" fill-rule="evenodd"/>
        <path id="Rectangle-12-2" data-name="Rectangle-12" d="M112,204h-8v8.261h8Z" transform="translate(-70.671 -135.156)" fill="#fffffe" stroke="#95bae7" stroke-width="8" fill-rule="evenodd"/>
        <path id="Rectangle-12-3" data-name="Rectangle-12" d="M12,105H4v8.261h8Z" transform="translate(-4 -70.234)" fill="#fff" stroke="#95bae7" stroke-width="8" fill-rule="evenodd"/>
        <line id="Line" y2="26.438" transform="translate(70.273 7.198)" fill="none" stroke="#141c3a" stroke-linecap="square" stroke-width="8"/>
        <line id="Line-2" data-name="Line" y2="25.92" transform="translate(70.273 43.485)" fill="none" stroke="#141c3a" stroke-linecap="square" stroke-width="8"/>
        <ellipse id="Oval-5-7" data-name="Oval-5" cx="4.115" cy="4.147" rx="4.115" ry="4.147" transform="translate(66.532 2.532)" fill="#141c3a"/>
        <ellipse id="Oval-5-8" data-name="Oval-5" cx="4.115" cy="3.888" rx="4.115" ry="3.888" transform="translate(66.532 67.85)" fill="#141c3a"/>
        <path id="Rectangle-12-4" data-name="Rectangle-12" d="M211,105h-8v8.261h8Z" transform="translate(-136.675 -70.234)" fill="#fff" stroke="#95bae7" stroke-width="8" fill-rule="evenodd"/>
      </g>
      <g id="Group-60" transform="translate(31.454 46.393)">
        <rect id="Rectangle-15" width="23.194" height="23.846" rx="11.597" transform="translate(0 0)" fill="#141c3a"/>
        <rect id="Rectangle-15-2" data-name="Rectangle-15" width="23.194" height="24.365" rx="11.597" transform="translate(0 30.585)" fill="#95bae7"/>
        <rect id="Rectangle-15-3" data-name="Rectangle-15" width="23.194" height="24.365" rx="11.597" transform="translate(0 61.689)" fill="#ecaeca"/>
      </g>
    </g>
    <g id="Group-65" transform="translate(750.908 273.712)">
      <g id="Group-64" transform="translate(37.188 17.625)">
        <ellipse id="Oval-8" cx="20.202" cy="20.736" rx="20.202" ry="20.736" transform="translate(0 0)" fill="#fff" stroke="#141c3a" stroke-width="8"/>
        <ellipse id="Oval-8-2" data-name="Oval-8" cx="11.971" cy="11.923" rx="11.971" ry="11.923" transform="translate(8.23 8.813)" fill="#fff" stroke="#141c3a" stroke-width="8"/>
      </g>
      <ellipse id="Oval-8-3" data-name="Oval-8" cx="6.36" cy="6.998" rx="6.36" ry="6.998" transform="translate(24.469 0)" fill="#fffffe" stroke="#141c3a" stroke-width="8"/>
      <path id="Rectangle-16" d="M61.97,15H5.333a1.308,1.308,0,0,0-.943.4,1.4,1.4,0,0,0-.39.974V74.205a6.977,6.977,0,0,0,1.952,4.868,6.541,6.541,0,0,0,4.713,2.016H56.637a6.542,6.542,0,0,0,4.713-2.016A6.978,6.978,0,0,0,63.3,74.205V16.377a1.4,1.4,0,0,0-.391-.974A1.308,1.308,0,0,0,61.97,15Z" transform="translate(-4 -9.552)" fill="#fff" stroke="#141c3a" stroke-width="8" fill-rule="evenodd"/>
      <path id="Rectangle-16-2" data-name="Rectangle-16" d="M103.665,69h-12a2.616,2.616,0,0,0-1.885.807A2.791,2.791,0,0,0,89,71.754V88.276a2.791,2.791,0,0,0,.781,1.947,2.616,2.616,0,0,0,1.885.806h12a2.616,2.616,0,0,0,1.885-.806,2.791,2.791,0,0,0,.781-1.947V71.754a2.791,2.791,0,0,0-.781-1.947A2.617,2.617,0,0,0,103.665,69Z" transform="translate(-60.67 -44.964)" fill="#95bae7" stroke="#141c3a" stroke-width="8" fill-rule="evenodd"/>
      <line id="Line-2-2" data-name="Line-2" y2="15.662" transform="translate(36.829 5.964)" fill="none" stroke="#141c3a" stroke-linecap="square" stroke-width="8"/>
    </g>
    <g id="Group-78" transform="translate(693.365 326.387)">
      <path id="Oval-8-4" data-name="Oval-8" d="M23.9,4.2a19.23,19.23,0,0,0-13.858,5.928A20.47,20.47,0,0,0,4.348,22.994h39.1a20.471,20.471,0,0,0-5.691-12.866A19.23,19.23,0,0,0,23.9,4.2Z" transform="translate(-4.348 -4.2)" fill="#fff" stroke="#141c3a" stroke-width="8.4" fill-rule="evenodd"/>
      <rect id="Rectangle-11-33" data-name="Rectangle-11" width="2.993" height="4.147" rx="1.496" transform="translate(17.667 0.201)" fill="#141c3a"/>
    </g>
    <g id="Group-27" transform="translate(0 304.632)">
      <path id="Rectangle-17" d="M104.321,4H23.664A19.3,19.3,0,0,0,9.76,9.948a20.783,20.783,0,0,0,0,28.721,19.3,19.3,0,0,0,13.9,5.948h80.657a1.964,1.964,0,0,0,1.414-.6,2.1,2.1,0,0,0,.586-1.461v-3.2a2.8,2.8,0,0,0-.715-1.877,2.628,2.628,0,0,0-1.762-.87C99.23,36.27,95.8,35.061,93.5,33.1c-2.423-2.071-3.679-4.984-3.679-8.786a11.106,11.106,0,0,1,3.71-8.87c2.316-2,5.774-3.277,10.439-3.71a2.633,2.633,0,0,0,1.674-.9,2.8,2.8,0,0,0,.676-1.833V6.065a2.094,2.094,0,0,0-.586-1.46A1.963,1.963,0,0,0,104.321,4Z" transform="translate(-4 -4)" fill="#ecaeca" stroke="#141c3a" stroke-width="8" fill-rule="evenodd"/>
      <path id="Rectangle-19" d="M114.918,27H38a11.773,11.773,0,0,0-8.484,3.629,12.681,12.681,0,0,0,0,17.525A11.773,11.773,0,0,0,38,51.784q54.441,0,77.423.214h0c-2.682-.748-5.757-1.808-7.941-4.124-1.754-1.861-2.99-4.51-2.99-8.482,0-4.009,1.259-6.668,3.04-8.523A15.818,15.818,0,0,1,114.918,27Z" transform="translate(-18.668 -19.083)" fill="#fff" stroke="#141c3a" stroke-width="8" fill-rule="evenodd"/>
      <path id="Rectangle-18" d="M55.308,72h67.375a1.379,1.379,0,0,1,0,2.754H55.308a1.379,1.379,0,0,1,0-2.754Z" transform="translate(-37.335 -48.593)" fill="#141c3a" fill-rule="evenodd"/>
      <path id="Rectangle-18-2" data-name="Rectangle-18" d="M55.308,46h67.375a1.379,1.379,0,0,1,0,2.754H55.308a1.379,1.379,0,0,1,0-2.754Z" transform="translate(-37.335 -31.543)" fill="#141c3a" fill-rule="evenodd"/>
    </g>
    <g id="Group-94" transform="translate(64.992 201.438)">
      <path id="Shape" d="M17.049,48.753l-4.907-4.506q-3.91-3.586-7.812-7.18c-.6-.544-1.195-1.1-1.785-1.64V37.6l4.907-4.505q3.91-3.586,7.812-7.18c.6-.544,1.195-1.1,1.785-1.64a1.571,1.571,0,0,0,0-2.168,1.5,1.5,0,0,0-2.114,0l-4.907,4.505q-3.91,3.586-7.812,7.18c-.6.544-1.2,1.1-1.785,1.64a1.578,1.578,0,0,0,0,2.168L5.338,42.1q3.91,3.586,7.812,7.18c.6.544,1.2,1.1,1.785,1.64a1.49,1.49,0,0,0,2.114,0,1.586,1.586,0,0,0,0-2.168Z" transform="translate(0 -14.279)" fill="#141c3a"/>
      <path id="Shape-2" data-name="Shape" d="M125.017,24.276l4.907,4.505q3.909,3.586,7.812,7.18c.6.544,1.2,1.1,1.785,1.64V35.432l-4.907,4.505q-3.91,3.586-7.812,7.18c-.6.544-1.2,1.1-1.785,1.64a1.571,1.571,0,0,0,0,2.169,1.5,1.5,0,0,0,2.114,0l4.907-4.505q3.91-3.586,7.812-7.18c.6-.544,1.2-1.1,1.785-1.64a1.578,1.578,0,0,0,0-2.168l-4.907-4.505q-3.91-3.586-7.812-7.18c-.6-.544-1.195-1.1-1.785-1.64a1.49,1.49,0,0,0-2.114,0,1.586,1.586,0,0,0,0,2.168Z" transform="translate(-83.061 -14.279)" fill="#141c3a"/>
      <path id="Shape-3" data-name="Shape" d="M66.649,43.7c.448-1.379.889-2.759,1.337-4.145q1.6-4.977,3.2-9.946,1.927-6,3.861-11.992L78.39,7.253c.53-1.678,1.128-3.348,1.621-5.05l.022-.069A1.548,1.548,0,0,0,78.988.25,1.522,1.522,0,0,0,77.15,1.322C76.7,2.7,76.262,4.081,75.813,5.468q-1.6,4.977-3.2,9.946-1.927,6-3.861,11.992L65.409,37.772c-.53,1.67-1.128,3.341-1.621,5.042l-.022.069a1.549,1.549,0,0,0,1.046,1.885A1.523,1.523,0,0,0,66.649,43.7Z" transform="translate(-42.473 -0.205)" fill="#141c3a"/>
    </g>
  </g>
</svg>
